<svg xmlns="http://www.w3.org/2000/svg" xmlns:xlink="http://www.w3.org/1999/xlink" xmlns:lucid="lucid" width="922" height="1475.89"><g transform="translate(-159 -285.111979)" lucid:page-tab-id="4s1F4Ps0NfNt"><path d="M1050 340c16.57 0 30 13.43 30 30v80c0 16.57-13.43 30-30 30H190c-16.57 0-30-13.43-30-30v-80c0-16.57 13.43-30 30-30z" stroke="#4c535d" stroke-width="2" fill="#edf5ff"/><path d="M160 291.1a6 6 0 0 1 6-6h67.5a6 6 0 0 1 6 6V322a6 6 0 0 1-6 6H166a6 6 0 0 1-6-6z" fill="#4c535d"/><use xlink:href="#a" transform="matrix(1,0,0,1,168,293.1119791666667) translate(0 21.58376736111111)"/><use xlink:href="#b" transform="matrix(1,0,0,1,168,293.1119791666667) translate(32.877604166666664 21.58376736111111)"/><path d="M740 420c11.05 0 20 8.95 20 20s-8.95 20-20 20H500c-11.05 0-20-8.95-20-20s8.95-20 20-20z" stroke="#4c535d" stroke-width="2" fill="#edf5ff"/><path d="M480 371.1a6 6 0 0 1 6-6h139.38a6 6 0 0 1 6 6V402a6 6 0 0 1-6 6H486a6 6 0 0 1-6-6z" fill="#4c535d"/><use xlink:href="#c" transform="matrix(1,0,0,1,488,373.1119791666667) translate(0 21.58376736111111)"/><use xlink:href="#d" transform="matrix(1,0,0,1,488,373.1119791666667) translate(69.47699652777777 21.58376736111111)"/><use xlink:href="#e" transform="matrix(1,0,0,1,488,373.1119791666667) translate(121.83159722222221 21.58376736111111)"/><use xlink:href="#f" transform="matrix(1,0,0,1,508,428) translate(8.175130208333343 21.58376736111111)"/><path d="M440 420c11.05 0 20 8.95 20 20s-8.95 20-20 20H200c-11.05 0-20-8.95-20-20s8.95-20 20-20z" stroke="#4c535d" stroke-width="2" fill="#edf5ff"/><path d="M180 371.1a6 6 0 0 1 6-6h134.87a6 6 0 0 1 6 6V402a6 6 0 0 1-6 6H186a6 6 0 0 1-6-6z" fill="#4c535d"/><use xlink:href="#c" transform="matrix(1,0,0,1,188,373.1119791666667) translate(0 21.58376736111111)"/><use xlink:href="#d" transform="matrix(1,0,0,1,188,373.1119791666667) translate(69.47699652777777 21.58376736111111)"/><use xlink:href="#g" transform="matrix(1,0,0,1,188,373.1119791666667) translate(121.83159722222221 21.58376736111111)"/><use xlink:href="#h" transform="matrix(1,0,0,1,208,428) translate(10.806423611111114 21.58376736111111)"/><path d="M1040 420c11.05 0 20 8.95 20 20s-8.95 20-20 20H800c-11.05 0-20-8.95-20-20s8.95-20 20-20z" stroke="#4c535d" stroke-width="2" fill="#edf5ff"/><path d="M780 371.1a6 6 0 0 1 6-6h142.57a6 6 0 0 1 6 6V402a6 6 0 0 1-6 6H786a6 6 0 0 1-6-6z" fill="#4c535d"/><use xlink:href="#c" transform="matrix(1,0,0,1,788,373.1119791666667) translate(0 21.58376736111111)"/><use xlink:href="#d" transform="matrix(1,0,0,1,788,373.1119791666667) translate(69.47699652777777 21.58376736111111)"/><use xlink:href="#i" transform="matrix(1,0,0,1,788,373.1119791666667) translate(121.83159722222221 21.58376736111111)"/><use xlink:href="#j" transform="matrix(1,0,0,1,808,428) translate(6.580078125 21.58376736111111)"/><path d="M930 600c16.57 0 30 13.43 30 30v500c0 16.57-13.43 30-30 30H190c-16.57 0-30-13.43-30-30V630c0-16.57 13.43-30 30-30z" stroke="#4c535d" stroke-width="2" fill="#edf5ff"/><path d="M160 551.1a6 6 0 0 1 6-6h233.8a6 6 0 0 1 6 6V582a6 6 0 0 1-6 6H166a6 6 0 0 1-6-6z" fill="#4c535d"/><use xlink:href="#k" transform="matrix(1,0,0,1,168,553.1119791666666) translate(0 21.58376736111111)"/><use xlink:href="#l" transform="matrix(1,0,0,1,168,553.1119791666666) translate(49.186197916666664 21.58376736111111)"/><path d="M830 680c16.57 0 30 13.43 30 30v80c0 16.57-13.43 30-30 30H210c-16.57 0-30-13.43-30-30v-80c0-16.57 13.43-30 30-30z" stroke="#4c535d" stroke-width="2" fill="#edf5ff"/><path d="M180 631.1a6 6 0 0 1 6-6h381.22a6 6 0 0 1 6 6V662a6 6 0 0 1-6 6H186a6 6 0 0 1-6-6z" fill="#4c535d"/><use xlink:href="#m" transform="matrix(1,0,0,1,188,633.1119791666666) translate(0 21.58376736111111)"/><use xlink:href="#n" transform="matrix(1,0,0,1,188,633.1119791666666) translate(92.10069444444444 21.58376736111111)"/><use xlink:href="#o" transform="matrix(1,0,0,1,188,633.1119791666666) translate(265.6467013888889 21.58376736111111)"/><path d="M380 760c11.05 0 20 8.95 20 20s-8.95 20-20 20H220c-11.05 0-20-8.95-20-20s8.95-20 20-20z" stroke="#4c535d" stroke-width="2" fill="#edf5ff"/><path d="M200 711.1a6 6 0 0 1 6-6h169.1a6 6 0 0 1 6 6V742a6 6 0 0 1-6 6H206a6 6 0 0 1-6-6z" fill="#4c535d"/><use xlink:href="#p" transform="matrix(1,0,0,1,208,713.1119791666666) translate(0 21.58376736111111)"/><use xlink:href="#q" transform="matrix(1,0,0,1,208,713.1119791666666) translate(50.35807291666667 21.58376736111111)"/><use xlink:href="#r" transform="matrix(1,0,0,1,208,713.1119791666666) translate(99.98914930555556 21.58376736111111)"/><use xlink:href="#s" transform="matrix(1,0,0,1,228,768) translate(29.698567708333343 21.58376736111111)"/><use xlink:href="#t" transform="matrix(1,0,0,1,228,768) translate(105.26280381944444 21.58376736111111)"/><path d="M600 760c11.05 0 20 8.95 20 20s-8.95 20-20 20H440c-11.05 0-20-8.95-20-20s8.95-20 20-20z" stroke="#4c535d" stroke-width="2" fill="#edf5ff"/><path d="M420 711.1a6 6 0 0 1 6-6h164.12a6 6 0 0 1 6 6V742a6 6 0 0 1-6 6H426a6 6 0 0 1-6-6z" fill="#4c535d"/><use xlink:href="#p" transform="matrix(1,0,0,1,428,713.1119791666666) translate(0 21.58376736111111)"/><use xlink:href="#q" transform="matrix(1,0,0,1,428,713.1119791666666) translate(50.35807291666667 21.58376736111111)"/><use xlink:href="#u" transform="matrix(1,0,0,1,428,713.1119791666666) translate(99.98914930555556 21.58376736111111)"/><use xlink:href="#s" transform="matrix(1,0,0,1,448,768) translate(27.441623263888893 21.58376736111111)"/><use xlink:href="#v" transform="matrix(1,0,0,1,448,768) translate(103.005859375 21.58376736111111)"/><path d="M820 760c11.05 0 20 8.95 20 20s-8.95 20-20 20H660c-11.05 0-20-8.95-20-20s8.95-20 20-20z" stroke="#4c535d" stroke-width="2" fill="#edf5ff"/><path d="M640 711.1a6 6 0 0 1 6-6h168.64a6 6 0 0 1 6 6V742a6 6 0 0 1-6 6H646a6 6 0 0 1-6-6z" fill="#4c535d"/><use xlink:href="#p" transform="matrix(1,0,0,1,648,713.1119791666666) translate(0 21.58376736111111)"/><use xlink:href="#q" transform="matrix(1,0,0,1,648,713.1119791666666) translate(50.35807291666667 21.58376736111111)"/><use xlink:href="#w" transform="matrix(1,0,0,1,648,713.1119791666666) translate(99.98914930555556 21.58376736111111)"/><use xlink:href="#s" transform="matrix(1,0,0,1,668,768) translate(25.846571180555557 21.58376736111111)"/><use xlink:href="#x" transform="matrix(1,0,0,1,668,768) translate(101.41080729166666 21.58376736111111)"/><path d="M870 900c16.57 0 30 13.43 30 30v180c0 16.57-13.43 30-30 30H210c-16.57 0-30-13.43-30-30V930c0-16.57 13.43-30 30-30z" stroke="#4c535d" stroke-width="2" fill="#edf5ff"/><path d="M180 851.1a6 6 0 0 1 6-6h299.3a6 6 0 0 1 6 6V882a6 6 0 0 1-6 6H186a6 6 0 0 1-6-6z" fill="#4c535d"/><use xlink:href="#y" transform="matrix(1,0,0,1,188,853.1119791666666) translate(0 21.58376736111111)"/><use xlink:href="#z" transform="matrix(1,0,0,1,188,853.1119791666666) translate(128.00564236111111 21.58376736111111)"/><path d="M850 980c16.57 0 30 13.43 30 30v80c0 16.57-13.43 30-30 30H230c-16.57 0-30-13.43-30-30v-80c0-16.57 13.43-30 30-30z" stroke="#4c535d" stroke-width="2" fill="#edf5ff"/><path d="M200 931.1a6 6 0 0 1 6-6h106.38a6 6 0 0 1 6 6V962a6 6 0 0 1-6 6H206a6 6 0 0 1-6-6z" fill="#4c535d"/><use xlink:href="#A" transform="matrix(1,0,0,1,208,933.1119791666666) translate(0 21.58376736111111)"/><path d="M400 1060c11.05 0 20 8.95 20 20s-8.95 20-20 20H240c-11.05 0-20-8.95-20-20s8.95-20 20-20z" stroke="#4c535d" stroke-width="2" fill="#edf5ff"/><path d="M220 1011.1a6 6 0 0 1 6-6h169.1a6 6 0 0 1 6 6v30.9a6 6 0 0 1-6 6H226a6 6 0 0 1-6-6z" fill="#4c535d"/><use xlink:href="#p" transform="matrix(1,0,0,1,228,1013.1119791666666) translate(0 21.58376736111111)"/><use xlink:href="#q" transform="matrix(1,0,0,1,228,1013.1119791666666) translate(50.35807291666667 21.58376736111111)"/><use xlink:href="#r" transform="matrix(1,0,0,1,228,1013.1119791666666) translate(99.98914930555556 21.58376736111111)"/><use xlink:href="#s" transform="matrix(1,0,0,1,248,1068) translate(29.698567708333343 21.58376736111111)"/><use xlink:href="#t" transform="matrix(1,0,0,1,248,1068) translate(105.26280381944444 21.58376736111111)"/><path d="M620 1060c11.05 0 20 8.95 20 20s-8.95 20-20 20H460c-11.05 0-20-8.95-20-20s8.95-20 20-20z" stroke="#4c535d" stroke-width="2" fill="#edf5ff"/><path d="M440 1011.1a6 6 0 0 1 6-6h164.12a6 6 0 0 1 6 6v30.9a6 6 0 0 1-6 6H446a6 6 0 0 1-6-6z" fill="#4c535d"/><use xlink:href="#p" transform="matrix(1,0,0,1,448,1013.1119791666666) translate(0 21.58376736111111)"/><use xlink:href="#q" transform="matrix(1,0,0,1,448,1013.1119791666666) translate(50.35807291666667 21.58376736111111)"/><use xlink:href="#u" transform="matrix(1,0,0,1,448,1013.1119791666666) translate(99.98914930555556 21.58376736111111)"/><use xlink:href="#s" transform="matrix(1,0,0,1,468,1068) translate(27.441623263888893 21.58376736111111)"/><use xlink:href="#v" transform="matrix(1,0,0,1,468,1068) translate(103.005859375 21.58376736111111)"/><path d="M840 1060c11.05 0 20 8.95 20 20s-8.95 20-20 20H680c-11.05 0-20-8.95-20-20s8.95-20 20-20z" stroke="#4c535d" stroke-width="2" fill="#edf5ff"/><path d="M660 1011.1a6 6 0 0 1 6-6h168.64a6 6 0 0 1 6 6v30.9a6 6 0 0 1-6 6H666a6 6 0 0 1-6-6z" fill="#4c535d"/><use xlink:href="#p" transform="matrix(1,0,0,1,668,1013.1119791666666) translate(0 21.58376736111111)"/><use xlink:href="#q" transform="matrix(1,0,0,1,668,1013.1119791666666) translate(50.35807291666667 21.58376736111111)"/><use xlink:href="#w" transform="matrix(1,0,0,1,668,1013.1119791666666) translate(99.98914930555556 21.58376736111111)"/><use xlink:href="#s" transform="matrix(1,0,0,1,688,1068) translate(25.846571180555557 21.58376736111111)"/><use xlink:href="#x" transform="matrix(1,0,0,1,688,1068) translate(101.41080729166666 21.58376736111111)"/><path d="M930 1280c16.57 0 30 13.43 30 30v420c0 16.57-13.43 30-30 30H190c-16.57 0-30-13.43-30-30v-420c0-16.57 13.43-30 30-30z" stroke="#4c535d" stroke-width="2" fill="#edf5ff"/><path d="M160 1231.1a6 6 0 0 1 6-6h266.86a6 6 0 0 1 6 6v30.9a6 6 0 0 1-6 6H166a6 6 0 0 1-6-6z" fill="#4c535d"/><use xlink:href="#B" transform="matrix(1,0,0,1,168,1233.1119791666667) translate(0 21.58376736111111)"/><use xlink:href="#C" transform="matrix(1,0,0,1,168,1233.1119791666667) translate(97.66710069444444 21.58376736111111)"/><use xlink:href="#D" transform="matrix(1,0,0,1,168,1233.1119791666667) translate(161.81640625 21.58376736111111)"/><path d="M390 1360c16.57 0 30 13.43 30 30v320c0 16.57-13.43 30-30 30H210c-16.57 0-30-13.43-30-30v-320c0-16.57 13.43-30 30-30z" stroke="#4c535d" stroke-width="2" fill="#edf5ff"/><path d="M180 1311.1a6 6 0 0 1 6-6h88.6a6 6 0 0 1 6 6v30.9a6 6 0 0 1-6 6H186a6 6 0 0 1-6-6z" fill="#4c535d"/><use xlink:href="#E" transform="matrix(1,0,0,1,188,1313.1119791666667) translate(0 21.58376736111111)"/><use xlink:href="#g" transform="matrix(1,0,0,1,188,1313.1119791666667) translate(75.5642361111111 21.58376736111111)"/><path d="M380 1440c11.05 0 20 8.95 20 20s-8.95 20-20 20H220c-11.05 0-20-8.95-20-20s8.95-20 20-20z" stroke="#4c535d" stroke-width="2" fill="#edf5ff"/><path d="M200 1391.1a6 6 0 0 1 6-6h127.43a6 6 0 0 1 6 6v30.9a6 6 0 0 1-6 6H206a6 6 0 0 1-6-6z" fill="#4c535d"/><use xlink:href="#F" transform="matrix(1,0,0,1,208,1393.1119791666667) translate(0 21.58376736111111)"/><use xlink:href="#G" transform="matrix(1,0,0,1,208,1393.1119791666667) translate(99.0559895833333 21.58376736111111)"/><use xlink:href="#H" transform="matrix(1,0,0,1,228,1448) translate(8.121961805555557 21.58376736111111)"/><use xlink:href="#I" transform="matrix(1,0,0,1,228,1448) translate(58.48003472222223 21.58376736111111)"/><use xlink:href="#J" transform="matrix(1,0,0,1,228,1448) translate(108.11111111111111 21.58376736111111)"/><path d="M380 1560c11.05 0 20 8.95 20 20s-8.95 20-20 20H220c-11.05 0-20-8.95-20-20s8.95-20 20-20z" stroke="#4c535d" stroke-width="2" fill="#edf5ff"/><path d="M200 1511.1a6 6 0 0 1 6-6h126.63a6 6 0 0 1 6 6v30.9a6 6 0 0 1-6 6H206a6 6 0 0 1-6-6z" fill="#4c535d"/><use xlink:href="#F" transform="matrix(1,0,0,1,208,1513.1119791666667) translate(0 21.58376736111111)"/><use xlink:href="#K" transform="matrix(1,0,0,1,208,1513.1119791666667) translate(99.0559895833333 21.58376736111111)"/><use xlink:href="#H" transform="matrix(1,0,0,1,228,1568) translate(8.121961805555557 21.58376736111111)"/><use xlink:href="#I" transform="matrix(1,0,0,1,228,1568) translate(58.48003472222223 21.58376736111111)"/><use xlink:href="#J" transform="matrix(1,0,0,1,228,1568) translate(108.11111111111111 21.58376736111111)"/><path d="M380 1680c11.05 0 20 8.95 20 20s-8.95 20-20 20H220c-11.05 0-20-8.95-20-20s8.95-20 20-20z" stroke="#4c535d" stroke-width="2" fill="#edf5ff"/><path d="M200 1631.1a6 6 0 0 1 6-6h128.84a6 6 0 0 1 6 6v30.9a6 6 0 0 1-6 6H206a6 6 0 0 1-6-6z" fill="#4c535d"/><use xlink:href="#F" transform="matrix(1,0,0,1,208,1633.1119791666667) translate(0 21.58376736111111)"/><use xlink:href="#L" transform="matrix(1,0,0,1,208,1633.1119791666667) translate(99.0559895833333 21.58376736111111)"/><use xlink:href="#H" transform="matrix(1,0,0,1,228,1688) translate(13.634114583333329 21.58376736111111)"/><use xlink:href="#I" transform="matrix(1,0,0,1,228,1688) translate(63.9921875 21.58376736111111)"/><use xlink:href="#x" transform="matrix(1,0,0,1,228,1688) translate(113.62326388888889 21.58376736111111)"/><path d="M650 1360c16.57 0 30 13.43 30 30v320c0 16.57-13.43 30-30 30H470c-16.57 0-30-13.43-30-30v-320c0-16.57 13.43-30 30-30z" stroke="#4c535d" stroke-width="2" fill="#edf5ff"/><path d="M440 1311.1a6 6 0 0 1 6-6h93.12a6 6 0 0 1 6 6v30.9a6 6 0 0 1-6 6H446a6 6 0 0 1-6-6z" fill="#4c535d"/><g><use xlink:href="#E" transform="matrix(1,0,0,1,448,1313.1119791666667) translate(0 21.58376736111111)"/><use xlink:href="#e" transform="matrix(1,0,0,1,448,1313.1119791666667) translate(75.5642361111111 21.58376736111111)"/></g><path d="M640 1440c11.05 0 20 8.95 20 20s-8.95 20-20 20H480c-11.05 0-20-8.95-20-20s8.95-20 20-20z" stroke="#4c535d" stroke-width="2" fill="#edf5ff"/><path d="M460 1391.1a6 6 0 0 1 6-6h131.94a6 6 0 0 1 6 6v30.9a6 6 0 0 1-6 6H466a6 6 0 0 1-6-6z" fill="#4c535d"/><g><use xlink:href="#F" transform="matrix(1,0,0,1,468,1393.1119791666667) translate(0 21.58376736111111)"/><use xlink:href="#M" transform="matrix(1,0,0,1,468,1393.1119791666667) translate(99.0559895833333 21.58376736111111)"/></g><g><use xlink:href="#H" transform="matrix(1,0,0,1,488,1448) translate(8.121961805555557 21.58376736111111)"/><use xlink:href="#I" transform="matrix(1,0,0,1,488,1448) translate(58.48003472222223 21.58376736111111)"/><use xlink:href="#J" transform="matrix(1,0,0,1,488,1448) translate(108.11111111111111 21.58376736111111)"/></g><path d="M640 1560c11.05 0 20 8.95 20 20s-8.95 20-20 20H480c-11.05 0-20-8.95-20-20s8.95-20 20-20z" stroke="#4c535d" stroke-width="2" fill="#edf5ff"/><path d="M460 1511.1a6 6 0 0 1 6-6h131.15a6 6 0 0 1 6 6v30.9a6 6 0 0 1-6 6H466a6 6 0 0 1-6-6z" fill="#4c535d"/><g><use xlink:href="#F" transform="matrix(1,0,0,1,468,1513.1119791666667) translate(0 21.58376736111111)"/><use xlink:href="#N" transform="matrix(1,0,0,1,468,1513.1119791666667) translate(99.0559895833333 21.58376736111111)"/></g><g><use xlink:href="#H" transform="matrix(1,0,0,1,488,1568) translate(8.121961805555557 21.58376736111111)"/><use xlink:href="#I" transform="matrix(1,0,0,1,488,1568) translate(58.48003472222223 21.58376736111111)"/><use xlink:href="#J" transform="matrix(1,0,0,1,488,1568) translate(108.11111111111111 21.58376736111111)"/></g><path d="M640 1680c11.05 0 20 8.95 20 20s-8.95 20-20 20H480c-11.05 0-20-8.95-20-20s8.95-20 20-20z" stroke="#4c535d" stroke-width="2" fill="#edf5ff"/><path d="M460 1631.1a6 6 0 0 1 6-6h133.35a6 6 0 0 1 6 6v30.9a6 6 0 0 1-6 6H466a6 6 0 0 1-6-6z" fill="#4c535d"/><g><use xlink:href="#F" transform="matrix(1,0,0,1,468,1633.1119791666667) translate(0 21.58376736111111)"/><use xlink:href="#O" transform="matrix(1,0,0,1,468,1633.1119791666667) translate(99.0559895833333 21.58376736111111)"/></g><g><use xlink:href="#H" transform="matrix(1,0,0,1,488,1688) translate(13.634114583333329 21.58376736111111)"/><use xlink:href="#I" transform="matrix(1,0,0,1,488,1688) translate(63.9921875 21.58376736111111)"/><use xlink:href="#x" transform="matrix(1,0,0,1,488,1688) translate(113.62326388888889 21.58376736111111)"/></g><path d="M910 1360c16.57 0 30 13.43 30 30v320c0 16.57-13.43 30-30 30H730c-16.57 0-30-13.43-30-30v-320c0-16.57 13.43-30 30-30z" stroke="#4c535d" stroke-width="2" fill="#edf5ff"/><path d="M700 1311.1a6 6 0 0 1 6-6h96.3a6 6 0 0 1 6 6v30.9a6 6 0 0 1-6 6H706a6 6 0 0 1-6-6z" fill="#4c535d"/><g><use xlink:href="#E" transform="matrix(1,0,0,1,708,1313.1119791666667) translate(0 21.58376736111111)"/><use xlink:href="#i" transform="matrix(1,0,0,1,708,1313.1119791666667) translate(75.5642361111111 21.58376736111111)"/></g><path d="M900 1440c11.05 0 20 8.95 20 20s-8.95 20-20 20H740c-11.05 0-20-8.95-20-20s8.95-20 20-20z" stroke="#4c535d" stroke-width="2" fill="#edf5ff"/><path d="M720 1391.1a6 6 0 0 1 6-6h135.13a6 6 0 0 1 6 6v30.9a6 6 0 0 1-6 6H726a6 6 0 0 1-6-6z" fill="#4c535d"/><g><use xlink:href="#F" transform="matrix(1,0,0,1,728,1393.1119791666667) translate(0 21.58376736111111)"/><use xlink:href="#P" transform="matrix(1,0,0,1,728,1393.1119791666667) translate(99.0559895833333 21.58376736111111)"/></g><g><use xlink:href="#H" transform="matrix(1,0,0,1,748,1448) translate(8.121961805555557 21.58376736111111)"/><use xlink:href="#I" transform="matrix(1,0,0,1,748,1448) translate(58.48003472222223 21.58376736111111)"/><use xlink:href="#J" transform="matrix(1,0,0,1,748,1448) translate(108.11111111111111 21.58376736111111)"/></g><path d="M900 1560c11.05 0 20 8.95 20 20s-8.95 20-20 20H740c-11.05 0-20-8.95-20-20s8.95-20 20-20z" stroke="#4c535d" stroke-width="2" fill="#edf5ff"/><path d="M720 1511.1a6 6 0 0 1 6-6h134.34a6 6 0 0 1 6 6v30.9a6 6 0 0 1-6 6H726a6 6 0 0 1-6-6z" fill="#4c535d"/><g><use xlink:href="#F" transform="matrix(1,0,0,1,728,1513.1119791666667) translate(0 21.58376736111111)"/><use xlink:href="#Q" transform="matrix(1,0,0,1,728,1513.1119791666667) translate(99.0559895833333 21.58376736111111)"/></g><g><use xlink:href="#H" transform="matrix(1,0,0,1,748,1568) translate(8.121961805555557 21.58376736111111)"/><use xlink:href="#I" transform="matrix(1,0,0,1,748,1568) translate(58.48003472222223 21.58376736111111)"/><use xlink:href="#J" transform="matrix(1,0,0,1,748,1568) translate(108.11111111111111 21.58376736111111)"/></g><path d="M900 1680c11.05 0 20 8.95 20 20s-8.95 20-20 20H740c-11.05 0-20-8.95-20-20s8.95-20 20-20z" stroke="#4c535d" stroke-width="2" fill="#edf5ff"/><path d="M720 1631.1a6 6 0 0 1 6-6h136.54a6 6 0 0 1 6 6v30.9a6 6 0 0 1-6 6H726a6 6 0 0 1-6-6z" fill="#4c535d"/><g><use xlink:href="#F" transform="matrix(1,0,0,1,728,1633.1119791666667) translate(0 21.58376736111111)"/><use xlink:href="#R" transform="matrix(1,0,0,1,728,1633.1119791666667) translate(99.0559895833333 21.58376736111111)"/></g><g><use xlink:href="#H" transform="matrix(1,0,0,1,748,1688) translate(13.634114583333329 21.58376736111111)"/><use xlink:href="#I" transform="matrix(1,0,0,1,748,1688) translate(63.9921875 21.58376736111111)"/><use xlink:href="#x" transform="matrix(1,0,0,1,748,1688) translate(113.62326388888889 21.58376736111111)"/></g><path d="M620 481.5V534a6 6 0 0 1-6 6h-48a6 6 0 0 0-6 6v38.5" stroke="#4c535d" fill="none"/><path d="M620.48 481.5h-.96v-.5h.96z" stroke="#4c535d" stroke-width=".05" fill="#4c535d"/><path d="M560 598l-7.5-13h15z" stroke="#4c535d" fill="#4c535d"/><path d="M520 821.5V854a6 6 0 0 0 6 6h8a6 6 0 0 1 6 6v18.5" stroke="#4c535d" fill="none"/><path d="M520.48 821.5h-.96v-.5h.96z" stroke="#4c535d" stroke-width=".05" fill="#4c535d"/><path d="M540 898l-7.5-13h15z" stroke="#4c535d" fill="#4c535d"/><g><use xlink:href="#S" transform="matrix(1,0,0,1,548,849.2447916666666) translate(0 17.22222222222222)"/><use xlink:href="#T" transform="matrix(1,0,0,1,548,849.2447916666666) translate(46.86631944444444 17.22222222222222)"/><use xlink:href="#U" transform="matrix(1,0,0,1,548,849.2447916666666) translate(120.41666666666667 17.22222222222222)"/><use xlink:href="#V" transform="matrix(1,0,0,1,548,849.2447916666666) translate(195.27777777777777 17.22222222222222)"/></g><path d="M540 1121.5v72.5a6 6 0 0 0 6 6h8a6 6 0 0 1 6 6v58.5" stroke="#4c535d" fill="none"/><path d="M540.48 1121.5h-.96v-.5h.96z" stroke="#4c535d" stroke-width=".05" fill="#4c535d"/><path d="M560 1278l-7.5-13h15z" stroke="#4c535d" fill="#4c535d"/><g><use xlink:href="#W" transform="matrix(1,0,0,1,568,1206.4621437824148) translate(0 17.22222222222222)"/></g><defs><path fill="#fff" d="M180 0v-1490h901v168H370v510h643v168H370V0H180" id="X"/><path fill="#fff" d="M626 20c-262 0-458-168-468-396h184c12 133 134 229 284 229 180 0 311-137 311-326 0-192-136-335-323-335-92 0-196 33-255 78l-178-22 88-738h784v167H429l-51 435h8c61-51 160-87 263-87 273 0 474 211 474 499 0 286-210 496-497 496" id="Y"/><g id="a"><use transform="matrix(0.010850694444444444,0,0,0.010850694444444444,0,0)" xlink:href="#X"/><use transform="matrix(0.010850694444444444,0,0,0.010850694444444444,13.118489583333332,0)" xlink:href="#Y"/></g><path fill="#fff" d="M57 0l534-763-501-727h220c122 187 296 416 391 605 94-191 272-419 396-605h215L811-770 1340 0h-219C986-204 811-426 699-640 588-430 407-202 273 0H57" id="Z"/><path fill="#fff" d="M783 20c-382 0-661-292-661-764 0-473 279-766 661-766 302 0 548 182 601 489h-190c-42-204-217-313-411-313-268 0-476 208-476 590 0 381 209 588 476 588 195 0 369-110 411-313h190c-52 303-296 489-601 489" id="aa"/><g id="b"><use transform="matrix(0.010850694444444444,0,0,0.010850694444444444,0,0)" xlink:href="#Z"/><use transform="matrix(0.010850694444444444,0,0,0.010850694444444444,14.398871527777777,0)" xlink:href="#aa"/></g><path fill="#fff" d="M784 20c-382 0-662-292-662-764 0-473 280-766 662-766s660 293 660 766c0 472-278 764-660 764zm0-176c266 0 475-207 475-588 0-383-209-590-475-590-268 0-477 208-477 590 0 380 209 588 477 588" id="ab"/><path fill="#fff" d="M158 0v-1118h174v172h12c41-113 157-188 290-188 26 0 70 2 91 3v181c-11-2-60-10-108-10-161 0-279 109-279 260V0H158" id="ac"/><path fill="#fff" d="M158 0v-1118h180V0H158zm91-1301c-68 0-125-53-125-119s57-119 125-119c69 0 126 53 126 119s-57 119-126 119" id="ad"/><path fill="#fff" d="M611 442c-248 0-391-105-460-228l146-94c47 65 117 165 314 165 178 0 307-82 307-266v-224h-17C863-141 792-18 576-18c-268 0-472-195-472-546 0-346 197-568 476-568 216 0 288 133 326 193h17v-179h175V29c0 289-215 413-487 413zm-5-620c203 0 314-146 314-390 0-237-108-403-314-403-213 0-319 180-319 403 0 230 109 390 319 390" id="ae"/><path fill="#fff" d="M338-670V0H158v-1118h173l1 207c72-158 192-221 342-221 226 0 378 139 378 422V0H872v-695c0-172-96-275-252-275-161 0-282 109-282 300" id="af"/><g id="c"><use transform="matrix(0.010850694444444444,0,0,0.010850694444444444,0,0)" xlink:href="#ab"/><use transform="matrix(0.010850694444444444,0,0,0.010850694444444444,16.9921875,0)" xlink:href="#ac"/><use transform="matrix(0.010850694444444444,0,0,0.010850694444444444,25.70529513888889,0)" xlink:href="#ad"/><use transform="matrix(0.010850694444444444,0,0,0.010850694444444444,31.08723958333333,0)" xlink:href="#ae"/><use transform="matrix(0.010850694444444444,0,0,0.010850694444444444,44.71571180555556,0)" xlink:href="#ad"/><use transform="matrix(0.010850694444444444,0,0,0.010850694444444444,50.097656249999986,0)" xlink:href="#af"/></g><path fill="#fff" d="M180 0v-1490h510c348 0 508 209 508 474 0 266-160 477-507 477H370V0H180zm190-706h312c236 0 327-133 327-310 0-176-91-307-329-307H370v617" id="ag"/><path fill="#fff" d="M613 24c-304 0-509-231-509-576 0-350 205-580 509-580 305 0 511 230 511 580 0 345-206 576-511 576zm0-161c226 0 329-195 329-415 0-222-103-419-329-419-223 0-326 196-326 419 0 220 103 415 326 415" id="ah"/><path fill="#fff" d="M338-1490V0H158v-1490h180" id="ai"/><g id="d"><use transform="matrix(0.010850694444444444,0,0,0.010850694444444444,0,0)" xlink:href="#ag"/><use transform="matrix(0.010850694444444444,0,0,0.010850694444444444,14.073350694444445,0)" xlink:href="#ah"/><use transform="matrix(0.010850694444444444,0,0,0.010850694444444444,27.39800347222222,0)" xlink:href="#ah"/><use transform="matrix(0.010850694444444444,0,0,0.010850694444444444,40.72265625,0)" xlink:href="#ai"/></g><path fill="#fff" d="M154 0v-137l495-537c165-179 249-281 249-418 0-156-121-253-280-253-170 0-278 110-278 278H158c0-264 200-443 465-443 266 0 455 183 455 416 0 161-73 288-336 568L416-179v12h687V0H154" id="aj"/><use transform="matrix(0.010850694444444444,0,0,0.010850694444444444,0,0)" xlink:href="#aj" id="e"/><path d="M471 26C259 26 90-98 90-318c0-256 228-303 435-329 202-27 287-16 287-108 0-139-79-219-234-219-161 0-248 86-283 164l-173-57c86-203 278-265 451-265 150 0 419 46 419 395V0H815v-152h-12C765-73 660 26 471 26zm31-159c199 0 310-134 310-271v-155c-30 35-226 55-295 64-131 17-246 59-246 186 0 116 97 176 231 176" id="ak"/><path d="M158 418v-1536h174v179h20c37-59 106-193 324-193 279 0 474 222 474 576 0 356-194 580-473 580-213 0-288-135-325-197h-14v591H158zm492-555c209 0 317-186 317-421 0-232-105-413-317-413-206 0-314 166-314 413 0 249 111 421 314 421" id="al"/><path d="M154 0v-137l495-537c165-179 249-281 249-418 0-156-121-253-280-253-170 0-278 110-278 278H158c0-264 200-443 465-443 266 0 455 183 455 416 0 161-73 288-336 568L416-179v12h687V0H154" id="am"/><path d="M798-719v166H144v-166h654" id="an"/><path d="M628 24c-324 0-524-230-524-574 0-343 198-582 503-582 237 0 487 146 487 559v75H286c9 234 145 362 343 362 132 0 231-58 273-172l174 48C1024-91 857 24 628 24zM287-650h624c-17-190-120-322-304-322-192 0-309 151-320 322" id="ao"/><path d="M65 0l393-574-370-544h210c88 136 192 297 267 435 67-142 176-302 264-435h206L661-564 1053 0H844c-94-144-206-310-287-458C484-308 366-142 273 0H65" id="ap"/><path d="M158 0v-1118h175l1 205c55-151 181-225 313-225 147 0 245 90 285 228 53-141 190-228 352-228 194 0 352 125 352 384V0h-181v-749c0-161-105-225-225-225-151 0-243 103-243 244V0H807v-767c0-124-93-207-219-207-131 0-250 92-250 270V0H158" id="aq"/><path d="M338-1490V0H158v-1490h180" id="ar"/><path d="M613 24c-304 0-509-231-509-576 0-350 205-580 509-580 216 0 392 114 453 309l-173 49c-33-115-133-197-280-197-223 0-326 196-326 419 0 220 103 415 326 415 150 0 252-85 285-206l172 49C1010-95 832 24 613 24" id="as"/><path d="M613 24c-304 0-509-231-509-576 0-350 205-580 509-580 305 0 511 230 511 580 0 345-206 576-511 576zm0-161c226 0 329-195 329-415 0-222-103-419-329-419-223 0-326 196-326 419 0 220 103 415 326 415" id="at"/><g id="f"><use transform="matrix(0.010850694444444444,0,0,0.010850694444444444,0,0)" xlink:href="#ak"/><use transform="matrix(0.010850694444444444,0,0,0.010850694444444444,12.47829861111111,0)" xlink:href="#al"/><use transform="matrix(0.010850694444444444,0,0,0.010850694444444444,26.085069444444443,0)" xlink:href="#al"/><use transform="matrix(0.010850694444444444,0,0,0.010850694444444444,39.69184027777777,0)" xlink:href="#am"/><use transform="matrix(0.010850694444444444,0,0,0.010850694444444444,53.244357638888886,0)" xlink:href="#an"/><use transform="matrix(0.010850694444444444,0,0,0.010850694444444444,63.46571180555555,0)" xlink:href="#ao"/><use transform="matrix(0.010850694444444444,0,0,0.010850694444444444,75.92230902777777,0)" xlink:href="#ap"/><use transform="matrix(0.010850694444444444,0,0,0.010850694444444444,88.05338541666666,0)" xlink:href="#ak"/><use transform="matrix(0.010850694444444444,0,0,0.010850694444444444,100.53168402777777,0)" xlink:href="#aq"/><use transform="matrix(0.010850694444444444,0,0,0.010850694444444444,119.9978298611111,0)" xlink:href="#al"/><use transform="matrix(0.010850694444444444,0,0,0.010850694444444444,133.60460069444443,0)" xlink:href="#ar"/><use transform="matrix(0.010850694444444444,0,0,0.010850694444444444,138.98654513888889,0)" xlink:href="#ao"/><use transform="matrix(0.010850694444444444,0,0,0.010850694444444444,151.94227430555554,0)" xlink:href="#an"/><use transform="matrix(0.010850694444444444,0,0,0.010850694444444444,162.1636284722222,0)" xlink:href="#as"/><use transform="matrix(0.010850694444444444,0,0,0.010850694444444444,174.8589409722222,0)" xlink:href="#at"/><use transform="matrix(0.010850694444444444,0,0,0.010850694444444444,188.18359374999994,0)" xlink:href="#aq"/></g><path fill="#fff" d="M653-1490V0H466v-1314h-10L96-1047v-204l324-239h233" id="au"/><use transform="matrix(0.010850694444444444,0,0,0.010850694444444444,0,0)" xlink:href="#au" id="g"/><path d="M653-1490V0H466v-1314h-10L96-1047v-204l324-239h233" id="av"/><g id="h"><use transform="matrix(0.010850694444444444,0,0,0.010850694444444444,0,0)" xlink:href="#ak"/><use transform="matrix(0.010850694444444444,0,0,0.010850694444444444,12.47829861111111,0)" xlink:href="#al"/><use transform="matrix(0.010850694444444444,0,0,0.010850694444444444,26.085069444444443,0)" xlink:href="#al"/><use transform="matrix(0.010850694444444444,0,0,0.010850694444444444,38.94314236111111,0)" xlink:href="#av"/><use transform="matrix(0.010850694444444444,0,0,0.010850694444444444,47.98177083333333,0)" xlink:href="#an"/><use transform="matrix(0.010850694444444444,0,0,0.010850694444444444,58.203124999999986,0)" xlink:href="#ao"/><use transform="matrix(0.010850694444444444,0,0,0.010850694444444444,70.65972222222221,0)" xlink:href="#ap"/><use transform="matrix(0.010850694444444444,0,0,0.010850694444444444,82.7907986111111,0)" xlink:href="#ak"/><use transform="matrix(0.010850694444444444,0,0,0.010850694444444444,95.26909722222221,0)" xlink:href="#aq"/><use transform="matrix(0.010850694444444444,0,0,0.010850694444444444,114.73524305555556,0)" xlink:href="#al"/><use transform="matrix(0.010850694444444444,0,0,0.010850694444444444,128.34201388888889,0)" xlink:href="#ar"/><use transform="matrix(0.010850694444444444,0,0,0.010850694444444444,133.72395833333334,0)" xlink:href="#ao"/><use transform="matrix(0.010850694444444444,0,0,0.010850694444444444,146.6796875,0)" xlink:href="#an"/><use transform="matrix(0.010850694444444444,0,0,0.010850694444444444,156.90104166666666,0)" xlink:href="#as"/><use transform="matrix(0.010850694444444444,0,0,0.010850694444444444,169.59635416666666,0)" xlink:href="#at"/><use transform="matrix(0.010850694444444444,0,0,0.010850694444444444,182.92100694444443,0)" xlink:href="#aq"/></g><path fill="#fff" d="M180 0v-1490h224l606 953c40 63 108 177 176 312-27-437-7-821-13-1265h190V0h-226C860-448 622-778 356-1262c27 476 11 792 15 1262H180" id="aw"/><use transform="matrix(0.010850694444444444,0,0,0.010850694444444444,0,0)" xlink:href="#aw" id="i"/><path d="M180 0v-1490h224l606 953c40 63 108 177 176 312-27-437-7-821-13-1265h190V0h-226C860-448 622-778 356-1262c27 476 11 792 15 1262H180" id="ax"/><g id="j"><use transform="matrix(0.010850694444444444,0,0,0.010850694444444444,0,0)" xlink:href="#ak"/><use transform="matrix(0.010850694444444444,0,0,0.010850694444444444,12.47829861111111,0)" xlink:href="#al"/><use transform="matrix(0.010850694444444444,0,0,0.010850694444444444,26.085069444444443,0)" xlink:href="#al"/><use transform="matrix(0.010850694444444444,0,0,0.010850694444444444,39.69184027777777,0)" xlink:href="#ax"/><use transform="matrix(0.010850694444444444,0,0,0.010850694444444444,56.43446180555555,0)" xlink:href="#an"/><use transform="matrix(0.010850694444444444,0,0,0.010850694444444444,66.65581597222221,0)" xlink:href="#ao"/><use transform="matrix(0.010850694444444444,0,0,0.010850694444444444,79.11241319444444,0)" xlink:href="#ap"/><use transform="matrix(0.010850694444444444,0,0,0.010850694444444444,91.24348958333333,0)" xlink:href="#ak"/><use transform="matrix(0.010850694444444444,0,0,0.010850694444444444,103.72178819444444,0)" xlink:href="#aq"/><use transform="matrix(0.010850694444444444,0,0,0.010850694444444444,123.18793402777777,0)" xlink:href="#al"/><use transform="matrix(0.010850694444444444,0,0,0.010850694444444444,136.79470486111111,0)" xlink:href="#ar"/><use transform="matrix(0.010850694444444444,0,0,0.010850694444444444,142.17664930555557,0)" xlink:href="#ao"/><use transform="matrix(0.010850694444444444,0,0,0.010850694444444444,155.13237847222223,0)" xlink:href="#an"/><use transform="matrix(0.010850694444444444,0,0,0.010850694444444444,165.35373263888889,0)" xlink:href="#as"/><use transform="matrix(0.010850694444444444,0,0,0.010850694444444444,178.04904513888889,0)" xlink:href="#at"/><use transform="matrix(0.010850694444444444,0,0,0.010850694444444444,191.37369791666666,0)" xlink:href="#aq"/></g><path fill="#fff" d="M180 0v-1490h190c0 262 1 526-3 784 217-279 467-523 702-784h249L716-845 1319 0h-225L585-716 370-489V0H180" id="ay"/><path fill="#fff" d="M633 20c-303 0-511-173-511-416 0-188 124-348 291-378v-8c-145-37-237-174-237-332 0-227 192-396 457-396 261 0 456 169 456 396 0 158-94 295-235 332v8c162 30 291 190 291 378 0 243-212 416-512 416zm0-165c197 0 322-103 322-261 0-165-138-283-322-283-188 0-324 118-324 283 0 158 123 261 324 261zm0-703c157 0 272-101 272-252 0-149-110-246-272-246-165 0-273 97-273 246 0 151 112 252 273 252" id="az"/><path fill="#fff" d="M657 26c-323 0-524-166-541-416h195c15 169 171 246 346 246 202 0 356-106 356-265 5-203-294-238-475-293-239-73-380-191-380-389 0-252 224-419 512-419 294 0 499 171 508 396H992c-17-145-151-228-328-228-193 0-321 102-321 242 0 156 175 211 284 241l149 41c160 44 422 134 422 412 0 244-197 432-541 432" id="aA"/><g id="k"><use transform="matrix(0.010850694444444444,0,0,0.010850694444444444,0,0)" xlink:href="#ay"/><use transform="matrix(0.010850694444444444,0,0,0.010850694444444444,14.930555555555555,0)" xlink:href="#az"/><use transform="matrix(0.010850694444444444,0,0,0.010850694444444444,28.678385416666664,0)" xlink:href="#aA"/></g><path fill="#fff" d="M537 14c-226 0-379-139-379-422v-710h180v695c0 172 97 275 253 275 160 0 281-109 281-300v-670h181V0H879v-209C806-46 684 14 537 14" id="aB"/><path fill="#fff" d="M538 24C308 24 148-78 108-271l171-41c32 123 123 178 257 178 156 0 256-77 256-169 0-77-54-128-164-154l-186-44c-203-48-300-148-300-305 0-192 176-326 414-326 230 0 351 112 402 269l-163 42c-31-80-94-158-238-158-133 0-233 69-233 162 0 83 57 129 188 160l169 40c203 48 298 149 298 302 0 196-179 339-441 339" id="aC"/><path fill="#fff" d="M598-1118v154H368v674c0 100 37 144 132 144 23 0 62-6 92-12L629-6c-37 13-88 20-134 20-193 0-307-107-307-290v-688H20v-154h168v-266h180v266h230" id="aD"/><path fill="#fff" d="M628 24c-324 0-524-230-524-574 0-343 198-582 503-582 237 0 487 146 487 559v75H286c9 234 145 362 343 362 132 0 231-58 273-172l174 48C1024-91 857 24 628 24zM287-650h624c-17-190-120-322-304-322-192 0-309 151-320 322" id="aE"/><path fill="#fff" d="M692-1560L212 224H46l480-1784h166" id="aF"/><path fill="#fff" d="M52 0l541-1490h220L1361 0h-200l-149-416H398L254 0H52zm404-582h497c-103-290-145-390-251-756-108 377-145 460-246 756" id="aG"/><path fill="#fff" d="M158 418v-1536h174v179h20c37-59 106-193 324-193 279 0 474 222 474 576 0 356-194 580-473 580-213 0-288-135-325-197h-14v591H158zm492-555c209 0 317-186 317-421 0-232-105-413-317-413-206 0-314 166-314 413 0 249 111 421 314 421" id="aH"/><path fill="#fff" d="M471 26C259 26 90-98 90-318c0-256 228-303 435-329 202-27 287-16 287-108 0-139-79-219-234-219-161 0-248 86-283 164l-173-57c86-203 278-265 451-265 150 0 419 46 419 395V0H815v-152h-12C765-73 660 26 471 26zm31-159c199 0 310-134 310-271v-155c-30 35-226 55-295 64-131 17-246 59-246 186 0 116 97 176 231 176" id="aI"/><path fill="#fff" d="M613 24c-304 0-509-231-509-576 0-350 205-580 509-580 216 0 392 114 453 309l-173 49c-33-115-133-197-280-197-223 0-326 196-326 419 0 220 103 415 326 415 150 0 252-85 285-206l172 49C1010-95 832 24 613 24" id="aJ"/><path fill="#fff" d="M158 0v-1490h180v865h22l478-493h223L593-638 1096 0H865L456-523 338-412V0H158" id="aK"/><g id="l"><use transform="matrix(0.010850694444444444,0,0,0.010850694444444444,0,0)" xlink:href="#aa"/><use transform="matrix(0.010850694444444444,0,0,0.010850694444444444,16.23263888888889,0)" xlink:href="#ai"/><use transform="matrix(0.010850694444444444,0,0,0.010850694444444444,21.614583333333336,0)" xlink:href="#aB"/><use transform="matrix(0.010850694444444444,0,0,0.010850694444444444,34.75477430555556,0)" xlink:href="#aC"/><use transform="matrix(0.010850694444444444,0,0,0.010850694444444444,46.484375,0)" xlink:href="#aD"/><use transform="matrix(0.010850694444444444,0,0,0.010850694444444444,53.5373263888889,0)" xlink:href="#aE"/><use transform="matrix(0.010850694444444444,0,0,0.010850694444444444,66.49305555555556,0)" xlink:href="#ac"/><use transform="matrix(0.010850694444444444,0,0,0.010850694444444444,74.11024305555556,0)" xlink:href="#aF"/><use transform="matrix(0.010850694444444444,0,0,0.010850694444444444,81.57552083333333,0)" xlink:href="#aG"/><use transform="matrix(0.010850694444444444,0,0,0.010850694444444444,96.90755208333333,0)" xlink:href="#aH"/><use transform="matrix(0.010850694444444444,0,0,0.010850694444444444,110.51432291666666,0)" xlink:href="#aH"/><use transform="matrix(0.010850694444444444,0,0,0.010850694444444444,124.12109375,0)" xlink:href="#aC"/><use transform="matrix(0.010850694444444444,0,0,0.010850694444444444,135.85069444444443,0)" xlink:href="#aD"/><use transform="matrix(0.010850694444444444,0,0,0.010850694444444444,143.22916666666666,0)" xlink:href="#aI"/><use transform="matrix(0.010850694444444444,0,0,0.010850694444444444,155.70746527777777,0)" xlink:href="#aJ"/><use transform="matrix(0.010850694444444444,0,0,0.010850694444444444,168.40277777777777,0)" xlink:href="#aK"/></g><path fill="#fff" d="M481 0L54-1118h197c107 314 236 620 325 951 87-331 217-637 324-951h197L670 0H481" id="aL"/><path fill="#fff" d="M295 13c-75 0-135-60-135-135s60-135 135-135 135 60 135 135S370 13 295 13zm0-809c-75 0-135-60-135-135s60-135 135-135 135 60 135 135-60 135-135 135" id="aM"/><g id="m"><use transform="matrix(0.010850694444444444,0,0,0.010850694444444444,0,0)" xlink:href="#aA"/><use transform="matrix(0.010850694444444444,0,0,0.010850694444444444,14.2578125,0)" xlink:href="#aE"/><use transform="matrix(0.010850694444444444,0,0,0.010850694444444444,27.213541666666664,0)" xlink:href="#ac"/><use transform="matrix(0.010850694444444444,0,0,0.010850694444444444,35.92664930555555,0)" xlink:href="#aL"/><use transform="matrix(0.010850694444444444,0,0,0.010850694444444444,48.41579861111111,0)" xlink:href="#ad"/><use transform="matrix(0.010850694444444444,0,0,0.010850694444444444,53.79774305555556,0)" xlink:href="#aJ"/><use transform="matrix(0.010850694444444444,0,0,0.010850694444444444,66.49305555555554,0)" xlink:href="#aE"/><use transform="matrix(0.010850694444444444,0,0,0.010850694444444444,79.44878472222221,0)" xlink:href="#aM"/></g><path fill="#fff" d="M798-719v166H144v-166h654" id="aN"/><g id="n"><use transform="matrix(0.010850694444444444,0,0,0.010850694444444444,0,0)" xlink:href="#aD"/><use transform="matrix(0.010850694444444444,0,0,0.010850694444444444,7.378472222222222,0)" xlink:href="#aI"/><use transform="matrix(0.010850694444444444,0,0,0.010850694444444444,19.856770833333332,0)" xlink:href="#ad"/><use transform="matrix(0.010850694444444444,0,0,0.010850694444444444,25.23871527777778,0)" xlink:href="#ai"/><use transform="matrix(0.010850694444444444,0,0,0.010850694444444444,30.62065972222222,0)" xlink:href="#aC"/><use transform="matrix(0.010850694444444444,0,0,0.010850694444444444,42.350260416666664,0)" xlink:href="#aJ"/><use transform="matrix(0.010850694444444444,0,0,0.010850694444444444,55.26258680555556,0)" xlink:href="#aI"/><use transform="matrix(0.010850694444444444,0,0,0.010850694444444444,67.74088541666666,0)" xlink:href="#ai"/><use transform="matrix(0.010850694444444444,0,0,0.010850694444444444,73.1228298611111,0)" xlink:href="#aE"/><use transform="matrix(0.010850694444444444,0,0,0.010850694444444444,86.07855902777777,0)" xlink:href="#aN"/><use transform="matrix(0.010850694444444444,0,0,0.010850694444444444,96.29991319444444,0)" xlink:href="#aE"/><use transform="matrix(0.010850694444444444,0,0,0.010850694444444444,109.25564236111111,0)" xlink:href="#ae"/><use transform="matrix(0.010850694444444444,0,0,0.010850694444444444,122.88411458333334,0)" xlink:href="#ac"/><use transform="matrix(0.010850694444444444,0,0,0.010850694444444444,130.88107638888889,0)" xlink:href="#aE"/><use transform="matrix(0.010850694444444444,0,0,0.010850694444444444,143.83680555555554,0)" xlink:href="#aC"/><use transform="matrix(0.010850694444444444,0,0,0.010850694444444444,155.56640625,0)" xlink:href="#aC"/></g><path fill="#fff" d="M218-607c0-325 108-727 258-974h175c-155 315-250 682-250 974 0 265 78 531 250 886H476C306-10 218-315 218-607" id="aO"/><path fill="#fff" d="M370-1490V0H180v-1490h190" id="aP"/><path fill="#fff" d="M96 279C273-86 346-350 346-607c0-292-95-659-250-974h175c150 246 258 650 258 974 0 297-91 602-258 886H96" id="aQ"/><g id="o"><use transform="matrix(0.010850694444444444,0,0,0.010850694444444444,0,0)" xlink:href="#aO"/><use transform="matrix(0.010850694444444444,0,0,0.010850694444444444,8.10546875,0)" xlink:href="#aa"/><use transform="matrix(0.010850694444444444,0,0,0.010850694444444444,24.33810763888889,0)" xlink:href="#ai"/><use transform="matrix(0.010850694444444444,0,0,0.010850694444444444,29.720052083333336,0)" xlink:href="#aB"/><use transform="matrix(0.010850694444444444,0,0,0.010850694444444444,42.86024305555556,0)" xlink:href="#aC"/><use transform="matrix(0.010850694444444444,0,0,0.010850694444444444,54.58984375,0)" xlink:href="#aD"/><use transform="matrix(0.010850694444444444,0,0,0.010850694444444444,61.6427951388889,0)" xlink:href="#aE"/><use transform="matrix(0.010850694444444444,0,0,0.010850694444444444,74.59852430555556,0)" xlink:href="#ac"/><use transform="matrix(0.010850694444444444,0,0,0.010850694444444444,83.31163194444446,0)" xlink:href="#aP"/><use transform="matrix(0.010850694444444444,0,0,0.010850694444444444,89.2795138888889,0)" xlink:href="#ag"/><use transform="matrix(0.010850694444444444,0,0,0.010850694444444444,103.47222222222224,0)" xlink:href="#aQ"/></g><path fill="#fff" d="M98-1322v-168h1126v168H757V0H567v-1322H98" id="aR"/><g id="p"><use transform="matrix(0.010850694444444444,0,0,0.010850694444444444,0,0)" xlink:href="#aR"/><use transform="matrix(0.010850694444444444,0,0,0.010850694444444444,13.682725694444445,0)" xlink:href="#aa"/><use transform="matrix(0.010850694444444444,0,0,0.010850694444444444,29.915364583333336,0)" xlink:href="#ag"/></g><g id="q"><use transform="matrix(0.010850694444444444,0,0,0.010850694444444444,0,0)" xlink:href="#ag"/><use transform="matrix(0.010850694444444444,0,0,0.010850694444444444,14.073350694444445,0)" xlink:href="#ah"/><use transform="matrix(0.010850694444444444,0,0,0.010850694444444444,27.39800347222222,0)" xlink:href="#ac"/><use transform="matrix(0.010850694444444444,0,0,0.010850694444444444,36.11111111111111,0)" xlink:href="#aD"/></g><path fill="#fff" d="M646 20c-332 0-524-278-524-764 0-483 194-766 524-766s524 283 524 766c0 485-191 764-524 764zm0-166c218 0 341-220 341-598 0-380-123-601-341-601s-341 222-341 601c0 378 123 598 341 598" id="aS"/><g id="r"><use transform="matrix(0.010850694444444444,0,0,0.010850694444444444,0,0)" xlink:href="#au"/><use transform="matrix(0.010850694444444444,0,0,0.010850694444444444,9.038628472222221,0)" xlink:href="#aS"/><use transform="matrix(0.010850694444444444,0,0,0.010850694444444444,23.057725694444443,0)" xlink:href="#aS"/><use transform="matrix(0.010850694444444444,0,0,0.010850694444444444,37.076822916666664,0)" xlink:href="#aS"/><use transform="matrix(0.010850694444444444,0,0,0.010850694444444444,51.095920138888886,0)" xlink:href="#aS"/></g><path d="M98-1322v-168h1126v168H757V0H567v-1322H98" id="aT"/><path d="M158 0v-1118h180V0H158zm91-1301c-68 0-125-53-125-119s57-119 125-119c69 0 126 53 126 119s-57 119-126 119" id="aU"/><path d="M338-670V0H158v-1118h173l1 207c72-158 192-221 342-221 226 0 378 139 378 422V0H872v-695c0-172-96-275-252-275-161 0-282 109-282 300" id="aV"/><path d="M598-1118v154H368v674c0 100 37 144 132 144 23 0 62-6 92-12L629-6c-37 13-88 20-134 20-193 0-307-107-307-290v-688H20v-154h168v-266h180v266h230" id="aW"/><g id="s"><use transform="matrix(0.010850694444444444,0,0,0.010850694444444444,0,0)" xlink:href="#aT"/><use transform="matrix(0.010850694444444444,0,0,0.010850694444444444,12.71701388888889,0)" xlink:href="#ak"/><use transform="matrix(0.010850694444444444,0,0,0.010850694444444444,25.1953125,0)" xlink:href="#aU"/><use transform="matrix(0.010850694444444444,0,0,0.010850694444444444,30.577256944444443,0)" xlink:href="#ar"/><use transform="matrix(0.010850694444444444,0,0,0.010850694444444444,35.959201388888886,0)" xlink:href="#aV"/><use transform="matrix(0.010850694444444444,0,0,0.010850694444444444,49.088541666666664,0)" xlink:href="#ao"/><use transform="matrix(0.010850694444444444,0,0,0.010850694444444444,62.04427083333333,0)" xlink:href="#aW"/></g><use transform="matrix(0.010850694444444444,0,0,0.010850694444444444,0,0)" xlink:href="#av" id="t"/><g id="u"><use transform="matrix(0.010850694444444444,0,0,0.010850694444444444,0,0)" xlink:href="#au"/><use transform="matrix(0.010850694444444444,0,0,0.010850694444444444,9.038628472222221,0)" xlink:href="#au"/><use transform="matrix(0.010850694444444444,0,0,0.010850694444444444,18.077256944444443,0)" xlink:href="#aS"/><use transform="matrix(0.010850694444444444,0,0,0.010850694444444444,32.096354166666664,0)" xlink:href="#aS"/><use transform="matrix(0.010850694444444444,0,0,0.010850694444444444,46.115451388888886,0)" xlink:href="#aS"/></g><use transform="matrix(0.010850694444444444,0,0,0.010850694444444444,0,0)" xlink:href="#am" id="v"/><g id="w"><use transform="matrix(0.010850694444444444,0,0,0.010850694444444444,0,0)" xlink:href="#au"/><use transform="matrix(0.010850694444444444,0,0,0.010850694444444444,9.038628472222221,0)" xlink:href="#aj"/><use transform="matrix(0.010850694444444444,0,0,0.010850694444444444,22.591145833333332,0)" xlink:href="#aS"/><use transform="matrix(0.010850694444444444,0,0,0.010850694444444444,36.61024305555556,0)" xlink:href="#aS"/><use transform="matrix(0.010850694444444444,0,0,0.010850694444444444,50.62934027777778,0)" xlink:href="#aS"/></g><use transform="matrix(0.010850694444444444,0,0,0.010850694444444444,0,0)" xlink:href="#ax" id="x"/><path fill="#fff" d="M678-1118v154H420V0H240v-964H20v-154h220v-149c0-194 155-293 318-293 85 0 141 18 168 30l-50 154c-19-6-47-17-97-17-111 0-159 58-159 166v109h258" id="aX"/><g id="y"><use transform="matrix(0.010850694444444444,0,0,0.010850694444444444,0,0)" xlink:href="#aA"/><use transform="matrix(0.010850694444444444,0,0,0.010850694444444444,14.2578125,0)" xlink:href="#aD"/><use transform="matrix(0.010850694444444444,0,0,0.010850694444444444,21.63628472222222,0)" xlink:href="#aI"/><use transform="matrix(0.010850694444444444,0,0,0.010850694444444444,34.11458333333333,0)" xlink:href="#aD"/><use transform="matrix(0.010850694444444444,0,0,0.010850694444444444,41.16753472222222,0)" xlink:href="#aE"/><use transform="matrix(0.010850694444444444,0,0,0.010850694444444444,54.123263888888886,0)" xlink:href="#aX"/><use transform="matrix(0.010850694444444444,0,0,0.010850694444444444,62.34809027777778,0)" xlink:href="#aB"/><use transform="matrix(0.010850694444444444,0,0,0.010850694444444444,75.48828125,0)" xlink:href="#ai"/><use transform="matrix(0.010850694444444444,0,0,0.010850694444444444,80.87022569444444,0)" xlink:href="#aA"/><use transform="matrix(0.010850694444444444,0,0,0.010850694444444444,95.12803819444444,0)" xlink:href="#aE"/><use transform="matrix(0.010850694444444444,0,0,0.010850694444444444,108.08376736111111,0)" xlink:href="#aD"/><use transform="matrix(0.010850694444444444,0,0,0.010850694444444444,115.35373263888889,0)" xlink:href="#aM"/></g><g id="z"><use transform="matrix(0.010850694444444444,0,0,0.010850694444444444,0,0)" xlink:href="#aD"/><use transform="matrix(0.010850694444444444,0,0,0.010850694444444444,7.378472222222222,0)" xlink:href="#aI"/><use transform="matrix(0.010850694444444444,0,0,0.010850694444444444,19.856770833333332,0)" xlink:href="#ad"/><use transform="matrix(0.010850694444444444,0,0,0.010850694444444444,25.23871527777778,0)" xlink:href="#ai"/><use transform="matrix(0.010850694444444444,0,0,0.010850694444444444,30.62065972222222,0)" xlink:href="#aC"/><use transform="matrix(0.010850694444444444,0,0,0.010850694444444444,42.350260416666664,0)" xlink:href="#aJ"/><use transform="matrix(0.010850694444444444,0,0,0.010850694444444444,55.26258680555556,0)" xlink:href="#aI"/><use transform="matrix(0.010850694444444444,0,0,0.010850694444444444,67.74088541666666,0)" xlink:href="#ai"/><use transform="matrix(0.010850694444444444,0,0,0.010850694444444444,73.1228298611111,0)" xlink:href="#aE"/><use transform="matrix(0.010850694444444444,0,0,0.010850694444444444,86.07855902777777,0)" xlink:href="#aN"/><use transform="matrix(0.010850694444444444,0,0,0.010850694444444444,96.29991319444444,0)" xlink:href="#aE"/><use transform="matrix(0.010850694444444444,0,0,0.010850694444444444,109.25564236111111,0)" xlink:href="#ae"/><use transform="matrix(0.010850694444444444,0,0,0.010850694444444444,122.88411458333334,0)" xlink:href="#ac"/><use transform="matrix(0.010850694444444444,0,0,0.010850694444444444,130.88107638888889,0)" xlink:href="#aE"/><use transform="matrix(0.010850694444444444,0,0,0.010850694444444444,143.83680555555554,0)" xlink:href="#aC"/><use transform="matrix(0.010850694444444444,0,0,0.010850694444444444,155.56640625,0)" xlink:href="#aC"/></g><g id="A"><use transform="matrix(0.010850694444444444,0,0,0.010850694444444444,0,0)" xlink:href="#aa"/><use transform="matrix(0.010850694444444444,0,0,0.010850694444444444,16.23263888888889,0)" xlink:href="#ah"/><use transform="matrix(0.010850694444444444,0,0,0.010850694444444444,29.557291666666664,0)" xlink:href="#af"/><use transform="matrix(0.010850694444444444,0,0,0.010850694444444444,42.68663194444444,0)" xlink:href="#aD"/><use transform="matrix(0.010850694444444444,0,0,0.010850694444444444,50.065104166666664,0)" xlink:href="#aI"/><use transform="matrix(0.010850694444444444,0,0,0.010850694444444444,62.54340277777778,0)" xlink:href="#ad"/><use transform="matrix(0.010850694444444444,0,0,0.010850694444444444,67.92534722222221,0)" xlink:href="#af"/><use transform="matrix(0.010850694444444444,0,0,0.010850694444444444,81.05468749999999,0)" xlink:href="#aE"/><use transform="matrix(0.010850694444444444,0,0,0.010850694444444444,94.01041666666666,0)" xlink:href="#ac"/></g><g id="B"><use transform="matrix(0.010850694444444444,0,0,0.010850694444444444,0,0)" xlink:href="#aR"/><use transform="matrix(0.010850694444444444,0,0,0.010850694444444444,12.71701388888889,0)" xlink:href="#aI"/><use transform="matrix(0.010850694444444444,0,0,0.010850694444444444,25.1953125,0)" xlink:href="#ad"/><use transform="matrix(0.010850694444444444,0,0,0.010850694444444444,30.577256944444443,0)" xlink:href="#ai"/><use transform="matrix(0.010850694444444444,0,0,0.010850694444444444,35.959201388888886,0)" xlink:href="#aC"/><use transform="matrix(0.010850694444444444,0,0,0.010850694444444444,47.68880208333333,0)" xlink:href="#aJ"/><use transform="matrix(0.010850694444444444,0,0,0.010850694444444444,60.60112847222221,0)" xlink:href="#aI"/><use transform="matrix(0.010850694444444444,0,0,0.010850694444444444,73.07942708333333,0)" xlink:href="#ai"/><use transform="matrix(0.010850694444444444,0,0,0.010850694444444444,78.46137152777777,0)" xlink:href="#aE"/></g><path fill="#fff" d="M180 0v-1490h270l367 940c28 72 75 218 110 339 35-117 81-264 110-339l362-940h271V0h-187c2-448-5-837 7-1287-157 497-311 829-483 1287H842C666-458 514-784 354-1284c12 438 5 843 7 1284H180" id="aY"/><path fill="#fff" d="M338-670V0H158v-1490h180v566c73-149 190-208 336-208 226 0 379 139 379 422V0H872v-695c0-172-96-275-252-275-161 0-282 109-282 300" id="aZ"/><g id="C"><use transform="matrix(0.010850694444444444,0,0,0.010850694444444444,0,0)" xlink:href="#aY"/><use transform="matrix(0.010850694444444444,0,0,0.010850694444444444,20.07378472222222,0)" xlink:href="#aE"/><use transform="matrix(0.010850694444444444,0,0,0.010850694444444444,33.029513888888886,0)" xlink:href="#aC"/><use transform="matrix(0.010850694444444444,0,0,0.010850694444444444,44.75911458333333,0)" xlink:href="#aZ"/></g><path fill="#fff" d="M409 0L70-1118h191c89 329 165 560 243 925 75-353 154-601 240-925h192c85 325 161 564 235 922 77-354 157-598 244-922h191L1267 0h-179c-86-307-176-590-250-913C763-588 675-308 588 0H409" id="ba"/><g id="D"><use transform="matrix(0.010850694444444444,0,0,0.010850694444444444,0,0)" xlink:href="#aw"/><use transform="matrix(0.010850694444444444,0,0,0.010850694444444444,16.74262152777778,0)" xlink:href="#aE"/><use transform="matrix(0.010850694444444444,0,0,0.010850694444444444,29.698350694444443,0)" xlink:href="#aD"/><use transform="matrix(0.010850694444444444,0,0,0.010850694444444444,37.29383680555555,0)" xlink:href="#ba"/><use transform="matrix(0.010850694444444444,0,0,0.010850694444444444,55.078125,0)" xlink:href="#ah"/><use transform="matrix(0.010850694444444444,0,0,0.010850694444444444,68.40277777777777,0)" xlink:href="#ac"/><use transform="matrix(0.010850694444444444,0,0,0.010850694444444444,77.11588541666667,0)" xlink:href="#aK"/><use transform="matrix(0.010850694444444444,0,0,0.010850694444444444,89.31206597222221,0)" xlink:href="#aC"/></g><g id="E"><use transform="matrix(0.010850694444444444,0,0,0.010850694444444444,0,0)" xlink:href="#aR"/><use transform="matrix(0.010850694444444444,0,0,0.010850694444444444,12.71701388888889,0)" xlink:href="#aI"/><use transform="matrix(0.010850694444444444,0,0,0.010850694444444444,25.1953125,0)" xlink:href="#ad"/><use transform="matrix(0.010850694444444444,0,0,0.010850694444444444,30.577256944444443,0)" xlink:href="#ai"/><use transform="matrix(0.010850694444444444,0,0,0.010850694444444444,35.959201388888886,0)" xlink:href="#af"/><use transform="matrix(0.010850694444444444,0,0,0.010850694444444444,49.088541666666664,0)" xlink:href="#aE"/><use transform="matrix(0.010850694444444444,0,0,0.010850694444444444,62.04427083333333,0)" xlink:href="#aD"/></g><path fill="#fff" d="M180 0v-1490h908v168H370v486h669v168H370v500h727V0H180" id="bb"/><path fill="#fff" d="M577 24c-279 0-473-224-473-580 0-354 195-576 474-576 218 0 287 134 324 193h14v-551h180V0H922v-173h-20C865-111 790 24 577 24zm27-161c203 0 314-172 314-421 0-247-108-413-314-413-212 0-317 181-317 413 0 235 108 421 317 421" id="bc"/><g id="F"><use transform="matrix(0.010850694444444444,0,0,0.010850694444444444,0,0)" xlink:href="#bb"/><use transform="matrix(0.010850694444444444,0,0,0.010850694444444444,13.35720486111111,0)" xlink:href="#af"/><use transform="matrix(0.010850694444444444,0,0,0.010850694444444444,26.48654513888889,0)" xlink:href="#bc"/><use transform="matrix(0.010850694444444444,0,0,0.010850694444444444,40.093315972222214,0)" xlink:href="#aH"/><use transform="matrix(0.010850694444444444,0,0,0.010850694444444444,53.70008680555554,0)" xlink:href="#ah"/><use transform="matrix(0.010850694444444444,0,0,0.010850694444444444,67.02473958333331,0)" xlink:href="#ad"/><use transform="matrix(0.010850694444444444,0,0,0.010850694444444444,72.40668402777776,0)" xlink:href="#af"/><use transform="matrix(0.010850694444444444,0,0,0.010850694444444444,85.53602430555553,0)" xlink:href="#aD"/></g><g id="G"><use transform="matrix(0.010850694444444444,0,0,0.010850694444444444,0,0)" xlink:href="#au"/><use transform="matrix(0.010850694444444444,0,0,0.010850694444444444,9.038628472222221,0)" xlink:href="#aG"/></g><path d="M783 20c-382 0-661-292-661-764 0-473 279-766 661-766 302 0 548 182 601 489h-190c-42-204-217-313-411-313-268 0-476 208-476 590 0 381 209 588 476 588 195 0 369-110 411-313h190c-52 303-296 489-601 489" id="bd"/><path d="M180 0v-1490h510c348 0 508 209 508 474 0 266-160 477-507 477H370V0H180zm190-706h312c236 0 327-133 327-310 0-176-91-307-329-307H370v617" id="be"/><g id="H"><use transform="matrix(0.010850694444444444,0,0,0.010850694444444444,0,0)" xlink:href="#aT"/><use transform="matrix(0.010850694444444444,0,0,0.010850694444444444,13.682725694444445,0)" xlink:href="#bd"/><use transform="matrix(0.010850694444444444,0,0,0.010850694444444444,29.915364583333336,0)" xlink:href="#be"/></g><path d="M158 0v-1118h174v172h12c41-113 157-188 290-188 26 0 70 2 91 3v181c-11-2-60-10-108-10-161 0-279 109-279 260V0H158" id="bf"/><g id="I"><use transform="matrix(0.010850694444444444,0,0,0.010850694444444444,0,0)" xlink:href="#be"/><use transform="matrix(0.010850694444444444,0,0,0.010850694444444444,14.073350694444445,0)" xlink:href="#at"/><use transform="matrix(0.010850694444444444,0,0,0.010850694444444444,27.39800347222222,0)" xlink:href="#bf"/><use transform="matrix(0.010850694444444444,0,0,0.010850694444444444,36.11111111111111,0)" xlink:href="#aW"/></g><path d="M633 20c-303 0-511-173-511-416 0-188 124-348 291-378v-8c-145-37-237-174-237-332 0-227 192-396 457-396 261 0 456 169 456 396 0 158-94 295-235 332v8c162 30 291 190 291 378 0 243-212 416-512 416zm0-165c197 0 322-103 322-261 0-165-138-283-322-283-188 0-324 118-324 283 0 158 123 261 324 261zm0-703c157 0 272-101 272-252 0-149-110-246-272-246-165 0-273 97-273 246 0 151 112 252 273 252" id="bg"/><path d="M646 20c-332 0-524-278-524-764 0-483 194-766 524-766s524 283 524 766c0 485-191 764-524 764zm0-166c218 0 341-220 341-598 0-380-123-601-341-601s-341 222-341 601c0 378 123 598 341 598" id="bh"/><g id="J"><use transform="matrix(0.010850694444444444,0,0,0.010850694444444444,0,0)" xlink:href="#bg"/><use transform="matrix(0.010850694444444444,0,0,0.010850694444444444,13.74782986111111,0)" xlink:href="#bh"/></g><path fill="#fff" d="M180 0v-1490h528c311 0 458 177 458 395 0 191-114 278-244 313v14c139 9 302 137 302 371 0 225-148 397-499 397H180zm190-168h350c232 0 321-102 321-231 0-149-120-277-311-277H370v508zm0-668h328c160 0 286-101 286-255 0-129-87-231-280-231H370v486" id="bi"/><g id="K"><use transform="matrix(0.010850694444444444,0,0,0.010850694444444444,0,0)" xlink:href="#au"/><use transform="matrix(0.010850694444444444,0,0,0.010850694444444444,9.038628472222221,0)" xlink:href="#bi"/></g><g id="L"><use transform="matrix(0.010850694444444444,0,0,0.010850694444444444,0,0)" xlink:href="#au"/><use transform="matrix(0.010850694444444444,0,0,0.010850694444444444,9.038628472222221,0)" xlink:href="#aw"/></g><g id="M"><use transform="matrix(0.010850694444444444,0,0,0.010850694444444444,0,0)" xlink:href="#aj"/><use transform="matrix(0.010850694444444444,0,0,0.010850694444444444,13.55251736111111,0)" xlink:href="#aG"/></g><g id="N"><use transform="matrix(0.010850694444444444,0,0,0.010850694444444444,0,0)" xlink:href="#aj"/><use transform="matrix(0.010850694444444444,0,0,0.010850694444444444,13.55251736111111,0)" xlink:href="#bi"/></g><g id="O"><use transform="matrix(0.010850694444444444,0,0,0.010850694444444444,0,0)" xlink:href="#aj"/><use transform="matrix(0.010850694444444444,0,0,0.010850694444444444,13.55251736111111,0)" xlink:href="#aw"/></g><g id="P"><use transform="matrix(0.010850694444444444,0,0,0.010850694444444444,0,0)" xlink:href="#aw"/><use transform="matrix(0.010850694444444444,0,0,0.010850694444444444,16.74262152777778,0)" xlink:href="#aG"/></g><g id="Q"><use transform="matrix(0.010850694444444444,0,0,0.010850694444444444,0,0)" xlink:href="#aw"/><use transform="matrix(0.010850694444444444,0,0,0.010850694444444444,16.74262152777778,0)" xlink:href="#bi"/></g><g id="R"><use transform="matrix(0.010850694444444444,0,0,0.010850694444444444,0,0)" xlink:href="#aw"/><use transform="matrix(0.010850694444444444,0,0,0.010850694444444444,16.74262152777778,0)" xlink:href="#aw"/></g><path fill="#333" d="M135 0v-1490h305v1237h643V0H135" id="bj"/><path fill="#333" d="M628 22C291 22 81-210 81-554c0-346 210-578 547-578 336 0 547 232 547 578 0 344-211 576-547 576zm0-236c160 0 242-146 242-341 0-197-82-341-242-341S387-753 387-555c0 195 81 341 241 341" id="bk"/><path fill="#333" d="M440 22C227 22 68-92 68-313c0-250 202-322 422-343 195-21 271-24 271-105 0-95-63-149-175-149-116 0-187 57-211 129l-275-46c57-194 237-305 487-305 240 0 474 108 474 379V0H777v-155h-10C713-51 605 22 440 22zm85-211c140 0 238-93 238-211v-121c-37 26-156 42-222 51-111 16-185 59-185 149 0 87 70 132 169 132" id="bl"/><path fill="#333" d="M537 19C279 19 81-185 81-557c0-382 206-575 454-575 190 0 278 113 318 202h10v-560h300V0H868v-179h-15C812-89 719 19 537 19zm92-241c153 0 240-134 240-336 0-203-86-334-240-334-158 0-240 138-240 334 0 197 84 336 240 336" id="bm"/><g id="S"><use transform="matrix(0.008680555555555556,0,0,0.008680555555555556,0,0)" xlink:href="#bj"/><use transform="matrix(0.008680555555555556,0,0,0.008680555555555556,10.052083333333334,0)" xlink:href="#bk"/><use transform="matrix(0.008680555555555556,0,0,0.008680555555555556,21.12847222222222,0)" xlink:href="#bl"/><use transform="matrix(0.008680555555555556,0,0,0.008680555555555556,31.44965277777778,0)" xlink:href="#bm"/></g><path fill="#333" d="M135 0v-1490h591c327 0 492 160 492 383 0 177-115 286-268 320v15c168 8 326 140 326 361 0 236-176 411-512 411H135zm305-251h264c179 0 258-76 258-189 0-125-97-215-250-215H440v404zm0-613h241c131 0 228-74 228-194 0-109-79-183-222-183H440v377" id="bn"/><path fill="#333" d="M428-1490V0H128v-1490h300" id="bo"/><path fill="#333" d="M428-647V0H128v-1118h283l4 231c63-156 176-245 348-245 232 0 384 159 384 421V0H847v-659c0-139-76-222-202-222-128 0-217 86-217 234" id="bp"/><path fill="#333" d="M628 22C291 22 81-210 81-554c0-346 210-578 547-578 265 0 455 142 497 372l-279 52c-25-116-99-188-215-188-160 0-244 139-244 341 0 200 84 341 244 341 116 0 193-74 217-195l279 51C1085-123 896 22 628 22" id="bq"/><path fill="#333" d="M633 22C291 22 81-200 81-553c0-345 210-579 537-579 292 0 525 185 525 567v84H378c7 183 109 277 260 277 105 0 184-46 216-132l272 51C1071-99 893 22 633 22zM380-669h474c-15-146-94-237-233-237-143 0-229 99-241 237" id="br"/><g id="T"><use transform="matrix(0.008680555555555556,0,0,0.008680555555555556,0,0)" xlink:href="#bn"/><use transform="matrix(0.008680555555555556,0,0,0.008680555555555556,11.762152777777779,0)" xlink:href="#bl"/><use transform="matrix(0.008680555555555556,0,0,0.008680555555555556,22.083333333333336,0)" xlink:href="#bo"/><use transform="matrix(0.008680555555555556,0,0,0.008680555555555556,26.90104166666667,0)" xlink:href="#bl"/><use transform="matrix(0.008680555555555556,0,0,0.008680555555555556,37.22222222222223,0)" xlink:href="#bp"/><use transform="matrix(0.008680555555555556,0,0,0.008680555555555556,48.289930555555564,0)" xlink:href="#bq"/><use transform="matrix(0.008680555555555556,0,0,0.008680555555555556,58.75000000000001,0)" xlink:href="#br"/></g><path fill="#333" d="M135 0v-1490h468l242 684c30 94 76 293 111 455 34-161 80-360 110-455l238-684h470V0h-307c0-447-3-765 11-1227-122 503-246 788-395 1227H826C676-435 552-717 427-1215c15 453 11 775 11 1215H135" id="bs"/><path fill="#333" d="M513 14c-232 0-385-159-385-421v-711h300v659c0 139 76 222 202 222 127 0 217-86 217-234v-647h301V0H864l-4-232C797-74 683 14 513 14" id="bt"/><path fill="#333" d="M683-1118v229H474v562c0 71 29 104 102 104 23 0 73-7 95-13l43 225C647 9 580 16 520 16 296 16 174-96 174-301v-588H20v-229h154v-266h300v266h209" id="bu"/><path fill="#333" d="M128 0v-1118h300V0H128zm150-1264c-91 0-165-68-165-154 0-85 74-154 165-154 90 0 165 69 165 154 0 86-75 154-165 154" id="bv"/><path fill="#333" d="M128 418v-1536h295v188h14c41-89 129-202 319-202 248 0 453 193 453 575 0 372-197 576-455 576-183 0-275-108-317-198h-9v597H128zm534-640c156 0 240-139 240-336 0-196-83-334-240-334-154 0-241 131-241 334 0 202 88 336 241 336" id="bw"/><g id="U"><use transform="matrix(0.008680555555555556,0,0,0.008680555555555556,0,0)" xlink:href="#bs"/><use transform="matrix(0.008680555555555556,0,0,0.008680555555555556,16.5625,0)" xlink:href="#bt"/><use transform="matrix(0.008680555555555556,0,0,0.008680555555555556,27.630208333333336,0)" xlink:href="#bo"/><use transform="matrix(0.008680555555555556,0,0,0.008680555555555556,32.708333333333336,0)" xlink:href="#bu"/><use transform="matrix(0.008680555555555556,0,0,0.008680555555555556,39.21875,0)" xlink:href="#bv"/><use transform="matrix(0.008680555555555556,0,0,0.008680555555555556,44.036458333333336,0)" xlink:href="#bw"/><use transform="matrix(0.008680555555555556,0,0,0.008680555555555556,55.24305555555556,0)" xlink:href="#bo"/><use transform="matrix(0.008680555555555556,0,0,0.008680555555555556,60.06076388888889,0)" xlink:href="#br"/></g><path fill="#333" d="M786 20C389 20 94-260 94-744c0-487 299-766 692-766 339 0 597 194 641 529h-309c-28-162-156-258-326-258-233 0-388 179-388 495 0 323 157 493 387 493 170 0 298-97 328-259h309c-34 277-266 530-642 530" id="bx"/><path fill="#333" d="M128 0v-1118h290v195h12c54-169 184-238 367-200v268c-27-8-86-15-130-15-138 0-239 95-239 234V0H128" id="by"/><path fill="#333" d="M572 22C302 22 117-98 78-306l279-48c29 105 101 156 224 156 114 0 185-48 185-115 0-118-228-130-337-155-215-49-322-150-322-317 0-215 187-347 470-347 265 0 424 116 466 298l-266 47c-24-76-87-130-196-130-98 0-174 46-174 113 0 56 38 95 144 117l201 40c216 44 320 143 320 302 0 220-207 367-500 367" id="bz"/><g id="V"><use transform="matrix(0.008680555555555556,0,0,0.008680555555555556,0,0)" xlink:href="#bx"/><use transform="matrix(0.008680555555555556,0,0,0.008680555555555556,13.151041666666668,0)" xlink:href="#bk"/><use transform="matrix(0.008680555555555556,0,0,0.008680555555555556,24.053819444444446,0)" xlink:href="#bp"/><use transform="matrix(0.008680555555555556,0,0,0.008680555555555556,35.12152777777778,0)" xlink:href="#bu"/><use transform="matrix(0.008680555555555556,0,0,0.008680555555555556,41.71875,0)" xlink:href="#bl"/><use transform="matrix(0.008680555555555556,0,0,0.008680555555555556,52.03993055555556,0)" xlink:href="#bv"/><use transform="matrix(0.008680555555555556,0,0,0.008680555555555556,56.85763888888889,0)" xlink:href="#bp"/><use transform="matrix(0.008680555555555556,0,0,0.008680555555555556,67.92534722222223,0)" xlink:href="#br"/><use transform="matrix(0.008680555555555556,0,0,0.008680555555555556,78.515625,0)" xlink:href="#by"/><use transform="matrix(0.008680555555555556,0,0,0.008680555555555556,85.75520833333331,0)" xlink:href="#bz"/></g><path fill="#333" d="M449 0L49-1490h333c89 395 194 758 253 1185 65-426 176-790 269-1185h317c93 394 201 758 268 1181 60-425 164-788 253-1181h334L1675 0h-348c-90-376-204-711-266-1118C1004-714 886-373 798 0H449" id="bA"/><path fill="#333" d="M625 442c-280 0-454-114-503-274l258-72c28 63 97 128 243 128 153 0 246-69 246-216v-206h-23C805-108 717-16 536-16 284-16 81-191 81-561c0-378 208-571 456-571 188 0 280 113 321 202h13v-188h295V-9c0 303-226 451-541 451zm5-686c153 0 240-119 240-319 0-198-86-329-240-329-158 0-241 137-241 329 0 195 85 319 241 319" id="bB"/><g id="W"><use transform="matrix(0.008680555555555556,0,0,0.008680555555555556,0,0)" xlink:href="#bA"/><use transform="matrix(0.008680555555555556,0,0,0.008680555555555556,18.446180555555557,0)" xlink:href="#bv"/><use transform="matrix(0.008680555555555556,0,0,0.008680555555555556,23.263888888888893,0)" xlink:href="#by"/><use transform="matrix(0.008680555555555556,0,0,0.008680555555555556,30.06944444444445,0)" xlink:href="#br"/><use transform="matrix(0.008680555555555556,0,0,0.008680555555555556,40.65972222222223,0)" xlink:href="#bB"/><use transform="matrix(0.008680555555555556,0,0,0.008680555555555556,51.892361111111114,0)" xlink:href="#bt"/><use transform="matrix(0.008680555555555556,0,0,0.008680555555555556,62.96006944444445,0)" xlink:href="#bl"/><use transform="matrix(0.008680555555555556,0,0,0.008680555555555556,73.28125,0)" xlink:href="#by"/><use transform="matrix(0.008680555555555556,0,0,0.008680555555555556,80.08680555555556,0)" xlink:href="#bm"/></g></defs></g></svg>